<mxfile host="app.diagrams.net" agent="Mozilla/5.0 (Windows NT 10.0; Win64; x64) AppleWebKit/537.36 (KHTML, like Gecko) Chrome/141.0.0.0 Safari/537.36" version="28.2.5">
  <diagram id="C5RBs43oDa-KdzZeNtuy" name="Artifact Cosigning Flow">
    <mxGraphModel dx="801" dy="870" grid="1" gridSize="10" guides="1" tooltips="1" connect="1" arrows="1" fold="1" page="1" pageScale="1" pageWidth="827" pageHeight="1169" math="0" shadow="0">
      <root>
        <mxCell id="WIyWlLk6GJQsqaUBKTNV-0" />
        <mxCell id="WIyWlLk6GJQsqaUBKTNV-1" parent="WIyWlLk6GJQsqaUBKTNV-0" />
        <mxCell id="QOXQ5J0mBh9aW9vTUEDM-0" value="CloudEvent via NATS" style="edgeStyle=orthogonalEdgeStyle;rounded=0;html=1;endArrow=block;labelBackgroundColor=#ffffff;" parent="WIyWlLk6GJQsqaUBKTNV-1" source="QOXQ5J0mBh9aW9vTUEDM-20" target="QOXQ5J0mBh9aW9vTUEDM-21" edge="1">
          <mxGeometry relative="1" as="geometry" />
        </mxCell>
        <mxCell id="QOXQ5J0mBh9aW9vTUEDM-1" value="Store pending entry" style="edgeStyle=orthogonalEdgeStyle;rounded=0;html=1;endArrow=block;labelBackgroundColor=#ffffff;" parent="WIyWlLk6GJQsqaUBKTNV-1" source="QOXQ5J0mBh9aW9vTUEDM-21" target="QOXQ5J0mBh9aW9vTUEDM-22" edge="1">
          <mxGeometry relative="1" as="geometry" />
        </mxCell>
        <mxCell id="QOXQ5J0mBh9aW9vTUEDM-2" value="Policy evaluation" style="edgeStyle=orthogonalEdgeStyle;rounded=0;html=1;endArrow=block;labelBackgroundColor=#ffffff;" parent="WIyWlLk6GJQsqaUBKTNV-1" source="QOXQ5J0mBh9aW9vTUEDM-22" target="QOXQ5J0mBh9aW9vTUEDM-23" edge="1">
          <mxGeometry relative="1" as="geometry" />
        </mxCell>
        <mxCell id="QOXQ5J0mBh9aW9vTUEDM-3" value="Yes" style="edgeStyle=orthogonalEdgeStyle;rounded=0;html=1;endArrow=block;labelBackgroundColor=#ffffff;" parent="WIyWlLk6GJQsqaUBKTNV-1" source="QOXQ5J0mBh9aW9vTUEDM-23" target="QOXQ5J0mBh9aW9vTUEDM-24" edge="1">
          <mxGeometry relative="1" as="geometry">
            <mxPoint x="640" y="430" as="targetPoint" />
          </mxGeometry>
        </mxCell>
        <mxCell id="QOXQ5J0mBh9aW9vTUEDM-4" value="" style="edgeStyle=orthogonalEdgeStyle;rounded=0;html=1;endArrow=block;labelBackgroundColor=#ffffff;" parent="WIyWlLk6GJQsqaUBKTNV-1" source="QOXQ5J0mBh9aW9vTUEDM-24" target="QOXQ5J0mBh9aW9vTUEDM-25" edge="1">
          <mxGeometry relative="1" as="geometry" />
        </mxCell>
        <mxCell id="QOXQ5J0mBh9aW9vTUEDM-5" value="" style="edgeStyle=orthogonalEdgeStyle;rounded=0;html=1;endArrow=block;labelBackgroundColor=#ffffff;" parent="WIyWlLk6GJQsqaUBKTNV-1" source="QOXQ5J0mBh9aW9vTUEDM-25" target="QOXQ5J0mBh9aW9vTUEDM-26" edge="1">
          <mxGeometry relative="1" as="geometry" />
        </mxCell>
        <mxCell id="QOXQ5J0mBh9aW9vTUEDM-6" value="Decision = approve" style="edgeStyle=orthogonalEdgeStyle;rounded=0;html=1;endArrow=block;labelBackgroundColor=#ffffff;" parent="WIyWlLk6GJQsqaUBKTNV-1" source="QOXQ5J0mBh9aW9vTUEDM-26" target="QOXQ5J0mBh9aW9vTUEDM-27" edge="1">
          <mxGeometry relative="1" as="geometry">
            <mxPoint x="420" y="660" as="targetPoint" />
          </mxGeometry>
        </mxCell>
        <mxCell id="QOXQ5J0mBh9aW9vTUEDM-7" value="No" style="edgeStyle=orthogonalEdgeStyle;rounded=0;html=1;endArrow=block;labelBackgroundColor=#ffffff;" parent="WIyWlLk6GJQsqaUBKTNV-1" source="QOXQ5J0mBh9aW9vTUEDM-23" target="QOXQ5J0mBh9aW9vTUEDM-27" edge="1">
          <mxGeometry relative="1" as="geometry" />
        </mxCell>
        <mxCell id="QOXQ5J0mBh9aW9vTUEDM-8" value="cosign sign-blob (Sigstore)" style="edgeStyle=orthogonalEdgeStyle;rounded=0;html=1;endArrow=block;labelBackgroundColor=#ffffff;" parent="WIyWlLk6GJQsqaUBKTNV-1" source="QOXQ5J0mBh9aW9vTUEDM-27" target="QOXQ5J0mBh9aW9vTUEDM-28" edge="1">
          <mxGeometry relative="1" as="geometry" />
        </mxCell>
        <mxCell id="QOXQ5J0mBh9aW9vTUEDM-9" value="Persist" style="edgeStyle=orthogonalEdgeStyle;rounded=0;html=1;endArrow=block;labelBackgroundColor=#ffffff;" parent="WIyWlLk6GJQsqaUBKTNV-1" source="QOXQ5J0mBh9aW9vTUEDM-28" target="QOXQ5J0mBh9aW9vTUEDM-29" edge="1">
          <mxGeometry relative="1" as="geometry" />
        </mxCell>
        <mxCell id="QOXQ5J0mBh9aW9vTUEDM-10" value="Update entry status = signed" style="edgeStyle=orthogonalEdgeStyle;rounded=0;html=1;endArrow=block;labelBackgroundColor=#ffffff;" parent="WIyWlLk6GJQsqaUBKTNV-1" source="QOXQ5J0mBh9aW9vTUEDM-29" target="QOXQ5J0mBh9aW9vTUEDM-30" edge="1">
          <mxGeometry relative="1" as="geometry" />
        </mxCell>
        <mxCell id="QOXQ5J0mBh9aW9vTUEDM-11" value="" style="edgeStyle=orthogonalEdgeStyle;rounded=0;html=1;endArrow=block;labelBackgroundColor=#ffffff;" parent="WIyWlLk6GJQsqaUBKTNV-1" source="QOXQ5J0mBh9aW9vTUEDM-30" target="QOXQ5J0mBh9aW9vTUEDM-31" edge="1">
          <mxGeometry relative="1" as="geometry" />
        </mxCell>
        <mxCell id="QOXQ5J0mBh9aW9vTUEDM-12" value="Append block, compute Merkle root" style="edgeStyle=orthogonalEdgeStyle;rounded=0;html=1;endArrow=block;labelBackgroundColor=#ffffff;" parent="WIyWlLk6GJQsqaUBKTNV-1" source="QOXQ5J0mBh9aW9vTUEDM-31" target="QOXQ5J0mBh9aW9vTUEDM-32" edge="1">
          <mxGeometry relative="1" as="geometry" />
        </mxCell>
        <mxCell id="QOXQ5J0mBh9aW9vTUEDM-13" value="" style="edgeStyle=orthogonalEdgeStyle;rounded=0;html=1;endArrow=block;labelBackgroundColor=#ffffff;" parent="WIyWlLk6GJQsqaUBKTNV-1" source="QOXQ5J0mBh9aW9vTUEDM-32" target="QOXQ5J0mBh9aW9vTUEDM-33" edge="1">
          <mxGeometry relative="1" as="geometry" />
        </mxCell>
        <mxCell id="QOXQ5J0mBh9aW9vTUEDM-14" value="Yes" style="edgeStyle=orthogonalEdgeStyle;rounded=0;html=1;endArrow=block;labelBackgroundColor=#ffffff;" parent="WIyWlLk6GJQsqaUBKTNV-1" source="QOXQ5J0mBh9aW9vTUEDM-33" target="QOXQ5J0mBh9aW9vTUEDM-34" edge="1">
          <mxGeometry relative="1" as="geometry">
            <mxPoint x="640" y="1460" as="targetPoint" />
          </mxGeometry>
        </mxCell>
        <mxCell id="QOXQ5J0mBh9aW9vTUEDM-15" value="" style="edgeStyle=orthogonalEdgeStyle;rounded=0;html=1;endArrow=block;labelBackgroundColor=#ffffff;" parent="WIyWlLk6GJQsqaUBKTNV-1" source="QOXQ5J0mBh9aW9vTUEDM-34" target="QOXQ5J0mBh9aW9vTUEDM-35" edge="1">
          <mxGeometry relative="1" as="geometry" />
        </mxCell>
        <mxCell id="QOXQ5J0mBh9aW9vTUEDM-16" value="" style="edgeStyle=orthogonalEdgeStyle;rounded=0;html=1;endArrow=block;labelBackgroundColor=#ffffff;" parent="WIyWlLk6GJQsqaUBKTNV-1" source="QOXQ5J0mBh9aW9vTUEDM-35" target="QOXQ5J0mBh9aW9vTUEDM-36" edge="1">
          <mxGeometry relative="1" as="geometry" />
        </mxCell>
        <mxCell id="QOXQ5J0mBh9aW9vTUEDM-17" value="" style="edgeStyle=orthogonalEdgeStyle;rounded=0;html=1;endArrow=block;labelBackgroundColor=#ffffff;" parent="WIyWlLk6GJQsqaUBKTNV-1" source="QOXQ5J0mBh9aW9vTUEDM-36" target="QOXQ5J0mBh9aW9vTUEDM-37" edge="1">
          <mxGeometry relative="1" as="geometry">
            <mxPoint x="420" y="1620" as="targetPoint" />
          </mxGeometry>
        </mxCell>
        <mxCell id="QOXQ5J0mBh9aW9vTUEDM-18" value="No" style="edgeStyle=orthogonalEdgeStyle;rounded=0;html=1;endArrow=block;labelBackgroundColor=#ffffff;" parent="WIyWlLk6GJQsqaUBKTNV-1" source="QOXQ5J0mBh9aW9vTUEDM-33" target="QOXQ5J0mBh9aW9vTUEDM-37" edge="1">
          <mxGeometry relative="1" as="geometry" />
        </mxCell>
        <mxCell id="QOXQ5J0mBh9aW9vTUEDM-19" value="" style="edgeStyle=orthogonalEdgeStyle;rounded=0;html=1;endArrow=block;labelBackgroundColor=#ffffff;" parent="WIyWlLk6GJQsqaUBKTNV-1" source="QOXQ5J0mBh9aW9vTUEDM-37" target="QOXQ5J0mBh9aW9vTUEDM-38" edge="1">
          <mxGeometry relative="1" as="geometry" />
        </mxCell>
        <mxCell id="QOXQ5J0mBh9aW9vTUEDM-20" value="LAP / LAPI Service&#xa;emits artifact event&#xa;(acs.artifacts.event)" style="rounded=1;whiteSpace=wrap;html=1;" parent="WIyWlLk6GJQsqaUBKTNV-1" vertex="1">
          <mxGeometry x="280" y="40" width="220" height="100" as="geometry" />
        </mxCell>
        <mxCell id="QOXQ5J0mBh9aW9vTUEDM-21" value="Intake Worker&#xa;validates and deduplicates" style="rounded=1;whiteSpace=wrap;html=1;" parent="WIyWlLk6GJQsqaUBKTNV-1" vertex="1">
          <mxGeometry x="280" y="180" width="220" height="100" as="geometry" />
        </mxCell>
        <mxCell id="QOXQ5J0mBh9aW9vTUEDM-22" value="Ledger Entries&#xa;status = pending" style="rounded=1;whiteSpace=wrap;html=1;" parent="WIyWlLk6GJQsqaUBKTNV-1" vertex="1">
          <mxGeometry x="280" y="320" width="220" height="100" as="geometry" />
        </mxCell>
        <mxCell id="QOXQ5J0mBh9aW9vTUEDM-23" value="HITL required?" style="shape=rhombus;perimeter=rhombusPerimeter;whiteSpace=wrap;html=1;" parent="WIyWlLk6GJQsqaUBKTNV-1" vertex="1">
          <mxGeometry x="310" y="470" width="160" height="90" as="geometry" />
        </mxCell>
        <mxCell id="QOXQ5J0mBh9aW9vTUEDM-24" value="Publish&#xa;acs.hitl.request" style="rounded=1;whiteSpace=wrap;html=1;" parent="WIyWlLk6GJQsqaUBKTNV-1" vertex="1">
          <mxGeometry x="560" y="360" width="220" height="90" as="geometry" />
        </mxCell>
        <mxCell id="QOXQ5J0mBh9aW9vTUEDM-25" value="HITL Console /&#xa;Human Approver" style="rounded=1;whiteSpace=wrap;html=1;" parent="WIyWlLk6GJQsqaUBKTNV-1" vertex="1">
          <mxGeometry x="560" y="470" width="220" height="100" as="geometry" />
        </mxCell>
        <mxCell id="QOXQ5J0mBh9aW9vTUEDM-26" value="acs.hitl.decision&#xa;approve or deny" style="rounded=1;whiteSpace=wrap;html=1;" parent="WIyWlLk6GJQsqaUBKTNV-1" vertex="1">
          <mxGeometry x="560" y="600" width="220" height="100" as="geometry" />
        </mxCell>
        <mxCell id="QOXQ5J0mBh9aW9vTUEDM-27" value="Notary Orchestrator" style="rounded=1;whiteSpace=wrap;html=1;" parent="WIyWlLk6GJQsqaUBKTNV-1" vertex="1">
          <mxGeometry x="280" y="640" width="220" height="100" as="geometry" />
        </mxCell>
        <mxCell id="QOXQ5J0mBh9aW9vTUEDM-28" value="Signature Bundle" style="rounded=1;whiteSpace=wrap;html=1;" parent="WIyWlLk6GJQsqaUBKTNV-1" vertex="1">
          <mxGeometry x="280" y="780" width="220" height="100" as="geometry" />
        </mxCell>
        <mxCell id="QOXQ5J0mBh9aW9vTUEDM-29" value="Ledger Attestations" style="rounded=1;whiteSpace=wrap;html=1;" parent="WIyWlLk6GJQsqaUBKTNV-1" vertex="1">
          <mxGeometry x="280" y="920" width="220" height="100" as="geometry" />
        </mxCell>
        <mxCell id="QOXQ5J0mBh9aW9vTUEDM-30" value="Ledger Entries" style="rounded=1;whiteSpace=wrap;html=1;" parent="WIyWlLk6GJQsqaUBKTNV-1" vertex="1">
          <mxGeometry x="280" y="1060" width="220" height="100" as="geometry" />
        </mxCell>
        <mxCell id="QOXQ5J0mBh9aW9vTUEDM-31" value="Block Assembler" style="rounded=1;whiteSpace=wrap;html=1;" parent="WIyWlLk6GJQsqaUBKTNV-1" vertex="1">
          <mxGeometry x="280" y="1200" width="220" height="100" as="geometry" />
        </mxCell>
        <mxCell id="QOXQ5J0mBh9aW9vTUEDM-32" value="Ledger Blocks" style="rounded=1;whiteSpace=wrap;html=1;" parent="WIyWlLk6GJQsqaUBKTNV-1" vertex="1">
          <mxGeometry x="280" y="1340" width="220" height="100" as="geometry" />
        </mxCell>
        <mxCell id="QOXQ5J0mBh9aW9vTUEDM-33" value="Anchor enabled?" style="shape=rhombus;perimeter=rhombusPerimeter;whiteSpace=wrap;html=1;" parent="WIyWlLk6GJQsqaUBKTNV-1" vertex="1">
          <mxGeometry x="310" y="1490" width="160" height="90" as="geometry" />
        </mxCell>
        <mxCell id="QOXQ5J0mBh9aW9vTUEDM-34" value="Anchor Scheduler&#xa;(batch hash)" style="rounded=1;whiteSpace=wrap;html=1;" parent="WIyWlLk6GJQsqaUBKTNV-1" vertex="1">
          <mxGeometry x="560" y="1380" width="220" height="100" as="geometry" />
        </mxCell>
        <mxCell id="QOXQ5J0mBh9aW9vTUEDM-35" value="External Ledger /&#xa;Notary Service" style="rounded=1;whiteSpace=wrap;html=1;" parent="WIyWlLk6GJQsqaUBKTNV-1" vertex="1">
          <mxGeometry x="560" y="1520" width="220" height="100" as="geometry" />
        </mxCell>
        <mxCell id="QOXQ5J0mBh9aW9vTUEDM-36" value="Anchor Receipt stored" style="rounded=1;whiteSpace=wrap;html=1;" parent="WIyWlLk6GJQsqaUBKTNV-1" vertex="1">
          <mxGeometry x="560" y="1660" width="220" height="100" as="geometry" />
        </mxCell>
        <mxCell id="QOXQ5J0mBh9aW9vTUEDM-37" value="Ready for query" style="rounded=1;whiteSpace=wrap;html=1;" parent="WIyWlLk6GJQsqaUBKTNV-1" vertex="1">
          <mxGeometry x="280" y="1620" width="220" height="100" as="geometry" />
        </mxCell>
        <mxCell id="QOXQ5J0mBh9aW9vTUEDM-38" value="MCP Evidence API /&#xa;ACE Confidence Engine" style="rounded=1;whiteSpace=wrap;html=1;" parent="WIyWlLk6GJQsqaUBKTNV-1" vertex="1">
          <mxGeometry x="260" y="1780" width="260" height="100" as="geometry" />
        </mxCell>
      </root>
    </mxGraphModel>
  </diagram>
</mxfile>
